<svg height='100px' width='100px'  fill="#011347" xmlns="http://www.w3.org/2000/svg" xmlns:xlink="http://www.w3.org/1999/xlink" version="1.1" x="0px" y="0px" viewBox="206 206 100 100" enable-background="new 206 206 100 100" xml:space="preserve"><g><path id="lock" d="M269.054,247.677h-0.545v-1.794c0-3.354-1.3-6.497-3.658-8.849c-2.364-2.365-5.509-3.667-8.857-3.667   c-3.335,0-6.478,1.302-8.85,3.667c-2.364,2.365-3.666,5.508-3.666,8.849v1.794h-0.537c-1.859,0-3.372,1.513-3.372,3.372v7.837   c0,9.063,7.368,16.438,16.424,16.438c9.064,0,16.438-7.375,16.438-16.438v-7.837C272.432,249.19,270.916,247.677,269.054,247.677z    M245.005,245.883c0-2.934,1.143-5.692,3.217-7.769c2.083-2.077,4.843-3.22,7.771-3.22c2.94,0,5.702,1.143,7.778,3.22   c2.071,2.064,3.211,4.823,3.211,7.769v1.794h-3.039v-1.794c0-4.38-3.563-7.943-7.943-7.943c-4.379,0-7.943,3.563-7.943,7.943v1.794   h-3.053L245.005,245.883L245.005,245.883z M249.584,247.677v-1.794c0-3.539,2.878-6.417,6.417-6.417   c3.538,0,6.417,2.879,6.417,6.417v1.794H249.584z M270.906,258.886c0,8.223-6.689,14.911-14.912,14.911   c-8.214,0-14.897-6.688-14.897-14.911v-7.837c0-1.018,0.828-1.846,1.845-1.846h1.276c0.016,0,0.033,0,0.048,0h23.456   c0.016,0,0.032,0,0.049,0h1.283c1.021,0,1.852,0.828,1.852,1.846V258.886z"></path><path id="keyhole" d="M260.739,258.075c0-2.611-2.13-4.736-4.747-4.736c-2.611,0-4.736,2.125-4.736,4.736c0,1.554,0.753,2.986,2,3.863   l-0.982,3.904c-0.065,0.261,0.011,0.535,0.201,0.726c0.642,0.641,2.082,0.963,3.521,0.963c1.441,0,2.88-0.322,3.522-0.963   c0.189-0.188,0.267-0.464,0.201-0.725l-0.972-3.906C259.989,261.058,260.739,259.627,260.739,258.075z M257.516,260.908   c-0.31,0.164-0.468,0.519-0.383,0.858l0.979,3.931c-0.975,0.429-3.251,0.429-4.227,0.001l0.988-3.93   c0.086-0.342-0.073-0.698-0.385-0.862c-1.052-0.554-1.706-1.639-1.706-2.831c0-1.77,1.439-3.21,3.209-3.21   c1.776,0,3.22,1.44,3.22,3.21C259.212,259.266,258.563,260.352,257.516,260.908z"></path><path d="M298.748,274.594v-9.41c0-0.421-0.342-0.762-0.764-0.762h-12.762c0.847-2.448,1.395-5.034,1.598-7.714h4.854   c0.344,1.383,1.594,2.413,3.082,2.413c1.753,0,3.178-1.426,3.178-3.178c0-1.753-1.425-3.179-3.178-3.179   c-1.489,0-2.739,1.031-3.082,2.417h-4.775c0.008-0.278,0.012-0.556,0.012-0.835c0-2.291-0.253-4.524-0.729-6.675h6.16   c0.422,0,0.763-0.342,0.763-0.763v-7.931c1.385-0.343,2.415-1.593,2.415-3.082c0-1.753-1.427-3.178-3.179-3.178   c-1.753,0-3.18,1.425-3.18,3.178c0,1.489,1.031,2.739,2.417,3.083v7.167h-5.774c-2.721-9.873-10.225-17.783-19.854-21.065v-10.3   h8.646c0.344,1.384,1.594,2.415,3.081,2.415c1.754,0,3.18-1.426,3.18-3.179c0-1.752-1.427-3.178-3.18-3.178   c-1.487,0-2.737,1.03-3.081,2.414h-9.41c-0.422,0-0.763,0.342-0.763,0.763v10.589c-2.462-0.698-5.047-1.097-7.715-1.157v-3.12   c1.385-0.343,2.416-1.593,2.416-3.082c0-1.752-1.427-3.178-3.179-3.178c-1.753,0-3.179,1.426-3.179,3.178   c0,1.489,1.031,2.739,2.416,3.082v3.122c-2.595,0.067-5.111,0.458-7.51,1.13v-4.918c0-0.421-0.342-0.763-0.764-0.763h-7.929   c-0.343-1.385-1.593-2.416-3.083-2.416c-1.753,0-3.179,1.426-3.179,3.179c0,1.752,1.426,3.179,3.179,3.179   c1.489,0,2.739-1.031,3.083-2.416h7.166v4.625c-9.644,3.252-17.172,11.142-19.922,21.003h-11.443v-8.646   c1.385-0.343,2.416-1.593,2.416-3.082c0-1.752-1.426-3.178-3.179-3.178c-1.752,0-3.178,1.426-3.178,3.178   c0,1.489,1.031,2.738,2.415,3.082v9.409c0,0.422,0.342,0.764,0.763,0.764h11.824c-0.489,2.179-0.749,4.444-0.749,6.769   c0,0.316,0.006,0.631,0.016,0.945h-4.781c-0.344-1.384-1.593-2.414-3.082-2.414c-1.752,0-3.178,1.426-3.178,3.178   c0,1.754,1.425,3.18,3.178,3.18c1.49,0,2.739-1.03,3.082-2.415h4.863c0.208,2.606,0.74,5.122,1.556,7.508h-7.085   c-0.421,0-0.763,0.342-0.763,0.764v7.931c-1.385,0.342-2.416,1.592-2.416,3.082c0,1.752,1.426,3.179,3.179,3.179   s3.178-1.427,3.178-3.179c0-1.49-1.031-2.74-2.416-3.082v-7.167h6.891c3.348,8.314,10.209,14.851,18.737,17.758v13.608h-8.646   c-0.343-1.386-1.593-2.416-3.082-2.416c-1.752,0-3.178,1.427-3.178,3.179c0,1.753,1.426,3.179,3.178,3.179   c1.488,0,2.738-1.03,3.082-2.414h9.409c0.422,0,0.764-0.344,0.764-0.766V284.09c2.461,0.698,5.048,1.098,7.716,1.158v6.426   c-1.384,0.343-2.416,1.594-2.416,3.082c0,1.753,1.426,3.178,3.179,3.178c1.752,0,3.179-1.425,3.179-3.178   c0-1.489-1.031-2.739-2.416-3.082v-6.429c2.594-0.067,5.109-0.457,7.508-1.129v8.225c0,0.181,0.066,0.346,0.174,0.478   c0.017,0.021,0.032,0.044,0.051,0.063c0.144,0.143,0.338,0.224,0.54,0.224l0,0l7.93-0.002c0.344,1.385,1.593,2.416,3.083,2.416   c1.752,0,3.178-1.427,3.178-3.179c0-1.753-1.426-3.18-3.178-3.18c-1.489,0-2.739,1.031-3.082,2.416h-7.167v-7.933   c8.538-2.879,15.418-9.396,18.792-17.696h12.574v8.646c-1.386,0.343-2.417,1.593-2.417,3.081c0,1.754,1.427,3.18,3.179,3.18   c1.753,0,3.178-1.427,3.178-3.18C301.162,276.188,300.133,274.938,298.748,274.594z M294.756,254.292   c0.911,0,1.652,0.741,1.652,1.652s-0.741,1.652-1.652,1.652c-0.908,0-1.648-0.738-1.652-1.647c0-0.001,0.001-0.003,0.001-0.004   c0-0.002-0.001-0.004-0.001-0.005C293.107,255.03,293.846,254.292,294.756,254.292z M290.689,235.896   c0-0.911,0.741-1.652,1.652-1.652s1.652,0.741,1.652,1.652s-0.741,1.652-1.652,1.652S290.689,236.807,290.689,235.896z    M235.897,221.312c-0.911,0-1.652-0.742-1.652-1.652c0-0.911,0.741-1.653,1.652-1.653c0.911,0,1.653,0.741,1.653,1.653   C237.55,220.57,236.808,221.312,235.897,221.312z M212.365,234.323c0-0.911,0.741-1.651,1.651-1.651   c0.912,0,1.653,0.741,1.653,1.651c0,0.911-0.741,1.652-1.653,1.652C213.106,235.975,212.365,235.234,212.365,234.323z    M221.312,276.104c0,0.91-0.741,1.651-1.652,1.651s-1.652-0.741-1.652-1.651c0-0.911,0.741-1.653,1.652-1.653   S221.312,275.192,221.312,276.104z M234.323,299.635c-0.911,0-1.651-0.741-1.651-1.651c0-0.911,0.74-1.653,1.651-1.653   s1.652,0.742,1.652,1.653C235.976,298.894,235.235,299.635,234.323,299.635z M277.677,212.364c0.911,0,1.651,0.741,1.651,1.651   c0,0.911-0.74,1.652-1.651,1.652c-0.91,0-1.651-0.741-1.651-1.652C276.026,213.105,276.767,212.364,277.677,212.364z    M254.293,217.243c0-0.911,0.741-1.652,1.653-1.652c0.911,0,1.651,0.741,1.651,1.652s-0.74,1.652-1.651,1.652   C255.034,218.896,254.293,218.155,254.293,217.243z M217.244,257.708c-0.91,0-1.651-0.741-1.651-1.653   c0-0.91,0.741-1.651,1.651-1.651c0.911,0,1.653,0.741,1.653,1.651C218.897,256.967,218.155,257.708,217.244,257.708z    M257.709,294.756c0,0.911-0.741,1.652-1.653,1.652c-0.911,0-1.652-0.741-1.652-1.652c0-0.909,0.739-1.649,1.648-1.652   c0.001,0,0.002,0,0.003,0c0.002,0,0.003,0,0.004,0C256.969,293.106,257.709,293.846,257.709,294.756z M276.104,290.688   c0.911,0,1.652,0.741,1.652,1.652s-0.741,1.652-1.652,1.652c-0.91,0-1.651-0.741-1.651-1.652S275.194,290.688,276.104,290.688z    M256.001,283.73c-16.202,0-29.384-13.182-29.384-29.384c0-16.202,13.182-29.383,29.384-29.383   c16.203,0,29.383,13.181,29.383,29.383C285.384,270.549,272.203,283.73,256.001,283.73z M297.985,279.328   c-0.911,0-1.652-0.741-1.652-1.652c0-0.909,0.741-1.65,1.652-1.65s1.651,0.741,1.651,1.65   C299.637,278.587,298.896,279.328,297.985,279.328z"></path></g></svg>