<?xml version="1.0" encoding="UTF-8"?>
<svg width="1200pt" height="1200pt" version="1.1" viewBox="0 0 1200 1200" xmlns="http://www.w3.org/2000/svg">
 <path d="m1068 264h-936c-39.719 0-72 32.281-72 72v528c0 39.719 32.281 72 72 72h936c39.602 0 72-32.281 72-72v-528c0-39.719-32.398-72-72-72zm-936 48h936c9.1211 0 17.039 5.2812 21.121 12.84l-17.16 11.16-458.88 298.8c-7.9219 5.1602-18.238 5.1602-26.281 0l-458.88-298.8-17.039-11.16c3.957-7.5586 11.879-12.84 21.117-12.84zm-24 68.281 337.44 219.72-337.44 219.72zm960 507.72h-936c-9.2383 0-17.16-5.2812-21.121-12.84l378.48-246.6 71.281 46.441c12 7.8008 25.68 11.641 39.359 11.641s27.359-3.8398 39.238-11.641l71.281-46.441 378.6 246.6c-4.082 7.5586-12 12.84-21.121 12.84zm24-68.281-337.44-219.72 337.44-219.72z" fill="#fff"/>
</svg>
