<?xml version="1.0" encoding="UTF-8"?>
<svg width="1200pt" height="1200pt" version="1.1" viewBox="0 0 1200 1200" xmlns="http://www.w3.org/2000/svg">
 <g fill="#011347">
  <path d="m1090.5 487.5-115.5-8.625c-6.2109-20.066-14.242-39.523-24-58.125l75-88.125c6.1836-7.168 9.4258-16.41 9.0781-25.867-0.35156-9.4609-4.2617-18.438-10.953-25.133l-105.75-106.12c-6.9336-6.4297-16.043-10.004-25.5-10.004s-18.566 3.5742-25.5 10.004l-88.125 75c-18.547-10.273-38.008-18.809-58.125-25.5l-8.625-115.5c-0.75391-9.418-5.0391-18.203-11.988-24.598-6.9531-6.3945-16.066-9.9336-25.512-9.9023h-150c-9.4453-0.03125-18.559 3.5078-25.512 9.9023-6.9492 6.3945-11.234 15.18-11.988 24.598l-8.625 115.5c-20.066 6.2109-39.523 14.242-58.125 24l-88.125-75c-6.9336-6.4297-16.043-10.004-25.5-10.004s-18.566 3.5742-25.5 10.004l-106.12 107.62c-6.4297 6.9336-10.004 16.043-10.004 25.5s3.5742 18.566 10.004 25.5l75 88.125c-10.273 18.547-18.809 38.008-25.5 58.125l-115.5 8.625c-9.418 0.75391-18.203 5.0391-24.598 11.988-6.3945 6.9531-9.9336 16.066-9.9023 25.512v150c-0.03125 9.4453 3.5078 18.559 9.9023 25.512 6.3945 6.9492 15.18 11.234 24.598 11.988l115.5 8.625c6.2109 20.066 14.242 39.523 24 58.125l-75 88.125c-6.4297 6.9336-10.004 16.043-10.004 25.5s3.5742 18.566 10.004 25.5l106.12 106.12c6.6953 6.6914 15.672 10.602 25.133 10.953 9.457 0.34766 18.699-2.8945 25.867-9.0781l88.125-75c18.602 9.7578 38.059 17.789 58.125 24l10.125 115.12c0.75391 9.418 5.0391 18.203 11.988 24.598 6.9531 6.3945 16.066 9.9336 25.512 9.9023h150c9.4453 0.03125 18.559-3.5078 25.512-9.9023 6.9492-6.3945 11.234-15.18 11.988-24.598l8.625-115.5c20.066-6.2109 39.523-14.242 58.125-24l88.125 75c7.168 6.1836 16.41 9.4258 25.867 9.0781 9.4609-0.35156 18.438-4.2617 25.133-10.953l106.12-106.12c6.6914-6.6953 10.602-15.672 10.953-25.133 0.34766-9.457-2.8945-18.699-9.0781-25.867l-75-88.125c9.6055-18.496 17.516-37.824 23.625-57.75l115.5-8.625c9.418-0.75391 18.203-5.0391 24.598-11.988 6.3945-6.9531 9.9336-16.066 9.9023-25.512v-150c0.03125-9.4453-3.5078-18.559-9.9023-25.512-6.3945-6.9492-15.18-11.234-24.598-11.988zm-40.5 152.62-107.25 8.25c-7.8516 0.64453-15.301 3.7422-21.293 8.8594-5.9883 5.1133-10.219 11.988-12.082 19.641-8.0195 30.852-20.66 60.309-37.5 87.375-4.1328 6.7344-6.0312 14.605-5.4258 22.484s3.6875 15.367 8.8008 21.391l70.125 81.75-57 57-81.75-70.125c-6.0234-5.1133-13.512-8.1953-21.391-8.8008s-15.75 1.293-22.484 5.4258c-27.066 16.84-56.523 29.48-87.375 37.5-7.6523 1.8633-14.527 6.0938-19.641 12.082-5.1172 5.9922-8.2148 13.441-8.8594 21.293l-6.75 105.75h-80.25l-8.25-107.25c-0.64453-7.8516-3.7422-15.301-8.8594-21.293-5.1133-5.9883-11.988-10.219-19.641-12.082-30.852-8.0195-60.309-20.66-87.375-37.5-6.7344-4.1328-14.605-6.0312-22.484-5.4258s-15.367 3.6875-21.391 8.8008l-81.75 71.625-57-57 70.125-81.75c5.1133-6.0234 8.1953-13.512 8.8008-21.391s-1.293-15.75-5.4258-22.484c-16.84-27.066-29.48-56.523-37.5-87.375-1.8633-7.6523-6.0938-14.527-12.082-19.641-5.9922-5.1172-13.441-8.2148-21.293-8.8594l-105.75-8.25v-80.25l107.25-8.25c7.6094-0.51562 14.883-3.3438 20.848-8.0977 5.9609-4.7578 10.332-11.223 12.527-18.527 8.0195-30.852 20.66-60.309 37.5-87.375 4.1328-6.7344 6.0312-14.605 5.4258-22.484s-3.6875-15.367-8.8008-21.391l-71.625-83.625 57-57 81.75 70.125c6.0234 5.1133 13.512 8.1953 21.391 8.8008s15.75-1.293 22.484-5.4258c27.031-16.906 56.5-29.555 87.375-37.5 7.6523-1.8633 14.527-6.0938 19.641-12.082 5.1172-5.9922 8.2148-13.441 8.8594-21.293l8.25-105.75h80.25l8.25 107.25c0.64453 7.8516 3.7422 15.301 8.8594 21.293 5.1133 5.9883 11.988 10.219 19.641 12.082 30.875 7.9453 60.344 20.594 87.375 37.5 6.7344 4.1328 14.605 6.0312 22.484 5.4258s15.367-3.6875 21.391-8.8008l81.75-70.125 57 57-70.125 81.75c-5.1133 6.0234-8.1953 13.512-8.8008 21.391s1.293 15.75 5.4258 22.484c16.84 27.066 29.48 56.523 37.5 87.375 1.8633 7.6523 6.0938 14.527 12.082 19.641 5.9922 5.1172 13.441 8.2148 21.293 8.8594l107.25 8.25z"/>
  <path d="m600 300c-79.566 0-155.87 31.605-212.13 87.867-56.262 56.262-87.867 132.57-87.867 212.13s31.605 155.87 87.867 212.13c56.262 56.262 132.57 87.867 212.13 87.867s155.87-31.605 212.13-87.867c56.262-56.262 87.867-132.57 87.867-212.13 0-52.66-13.863-104.39-40.191-150-26.332-45.605-64.203-83.477-109.81-109.81-45.605-26.328-97.34-40.191-150-40.191zm0 525c-59.672 0-116.9-23.707-159.1-65.902-42.195-42.195-65.902-99.426-65.902-159.1s23.707-116.9 65.902-159.1c42.195-42.195 99.426-65.902 159.1-65.902s116.9 23.707 159.1 65.902c42.195 42.195 65.902 99.426 65.902 159.1s-23.707 116.9-65.902 159.1c-42.195 42.195-99.426 65.902-159.1 65.902z"/>
 </g>
</svg>
