<?xml version="1.0" encoding="UTF-8"?>
<svg width="1200pt" height="1200pt" version="1.1" viewBox="0 0 1200 1200" xmlns="http://www.w3.org/2000/svg">
 <path d="m600 0c331.37 0 600 268.63 600 600s-268.63 600-600 600-600-268.63-600-600 268.63-600 600-600zm0 120c-265.1 0-480 214.9-480 480s214.9 480 480 480 480-214.9 480-480-214.9-480-480-480zm86.906 333.27-67.605 340.44c-1.5508 5.5117-2.543 11.02-2.9648 16.379-0.47266 5.4102-0.70703 10.668-0.70703 15.93 0 14.023 3.0625 23.691 9.1797 29.098 6.168 5.3594 15.82 8.0664 28.953 8.0664 8.8984 0 15.348-0.65234 19.348-1.9531 3.957-1.3555 7.6289-2.8047 11.02-4.4102-1.2266 17.934-4.9922 33.359-11.254 46.23-6.3086 12.824-14.215 23.543-23.68 32.008-9.5078 8.4609-20.242 14.773-32.199 18.832-11.957 4.0547-24.059 6.1094-36.297 6.1094-14.125 0-27.305-2.3047-39.547-6.8125-12.238-4.5586-22.926-11.77-31.965-21.535-9.0391-9.7695-16.148-22.141-21.371-37.164-5.2266-15.027-7.8164-33.109-7.8164-54.297 0-9.1641 0.61328-19.184 1.8359-30.102 0.81641-7.2773 1.9023-14.957 3.2656-23.039l2.2422-12.422 63.93-321.36zm-42.324-213.27c10.402 0 20.148 2.1055 29.188 6.3594 9.0391 4.2578 17.043 10.07 23.914 17.383 6.875 7.3125 12.336 15.777 16.336 25.441 3.957 9.6172 5.9805 19.938 5.9805 31.055 0 11.121-2.0234 21.438-5.9805 31.055-4 9.6172-9.4609 17.93-16.336 24.941-6.8711 7.0117-14.875 12.574-23.914 16.629-9.0391 4.0586-18.785 6.1133-29.188 6.1133-10.402 0-20.148-2.0547-29.188-6.1133-9.0391-4.0547-16.949-9.6172-23.68-16.629-6.7344-7.0117-12.004-15.324-15.867-24.941-3.8125-9.6172-5.7422-19.934-5.7422-31.055 0-11.117 1.9297-21.438 5.7422-31.055 3.8633-9.6641 9.1328-18.129 15.867-25.441 6.7305-7.3125 14.641-13.125 23.68-17.383 9.0391-4.2539 18.785-6.3594 29.188-6.3594z" fill="#fff"/>
</svg>
