<?xml version="1.0" encoding="UTF-8"?>
<svg width="1200pt" height="1200pt" version="1.1" viewBox="0 0 1200 1200" xmlns="http://www.w3.org/2000/svg">
 <path d="m996.77 498.39c0-275.8-222.58-498.39-498.39-498.39-275.8 0-498.39 222.58-498.39 498.39 0 275.8 222.58 498.39 498.39 498.39 111.29 0 208.07-33.871 295.16-96.773 91.934 91.934 183.87 183.87 280.64 275.8 67.742 67.742 169.36-33.871 101.61-101.61-91.934-96.773-183.87-188.71-275.8-280.64 62.902-87.098 96.773-183.87 96.773-295.16zm-125.8 0c0 208.07-164.52 372.58-372.58 372.58-203.23 0-372.58-164.52-372.58-372.58 0-203.23 169.36-372.58 372.58-372.58 208.07 0 372.58 169.36 372.58 372.58z" fill="#fff" fill-rule="evenodd"/>
</svg>
