<?xml version="1.0" encoding="UTF-8"?>
<svg width="1200pt" height="1200pt" version="1.1" viewBox="0 0 1200 1200" xmlns="http://www.w3.org/2000/svg">
 <g fill="#fff">
  <path d="m1148.4 1051.2-228-214.8c67.199-85.199 106.8-190.8 106.8-307.2 0-276-223.2-499.2-499.2-499.2-274.8 0-498 223.2-498 499.2 0 274.8 223.2 498 498 498 116.4 0 222-39.602 307.2-106.8l214.8 228c1.1992 1.1992 2.3984 2.3984 2.3984 2.3984 27.602 26.398 72 25.199 97.199-2.3984 27.602-27.598 26.402-72-1.1992-97.199zm-1008-522c0-213.6 174-387.6 387.6-387.6s387.6 174 387.6 387.6c0 213.6-174 387.6-387.6 387.6s-387.6-174-387.6-387.6z"/>
  <path d="m594 750c0 31.812-25.789 57.602-57.602 57.602-31.809 0-57.598-25.789-57.598-57.602s25.789-57.602 57.598-57.602c31.812 0 57.602 25.789 57.602 57.602"/>
  <path d="m530.4 256.8c-109.2 0-166.8 75.602-177.6 153.6-2.3984 15.602 10.801 30 26.398 30h42c13.199 0 24-9.6016 26.398-21.602 4.8008-30 24-67.199 84-67.199 45.602 0 64.801 24 72 38.398 10.801 21.602 9.6016 45.602-3.6016 64.801-13.199 18-25.199 26.398-39.602 37.199-34.801 25.199-63.602 50.398-69.602 122.4-1.1992 15.602 10.801 28.801 26.398 28.801h40.801c13.199 0 25.199-10.801 26.398-24 2.3984-31.199 10.801-36 28.801-49.199 16.801-12 39.602-27.602 62.398-58.801 34.801-46.801 39.602-109.2 12-163.2-28.785-57.602-87.586-91.199-157.19-91.199z"/>
 </g>
</svg>
