<?xml version="1.0" encoding="UTF-8"?>
<svg width="1200pt" height="1200pt" version="1.1" viewBox="0 0 1200 1200" xmlns="http://www.w3.org/2000/svg">
 <g fill="#fff">
  <path d="m532.74 988.39s25.992 23.09 45.695 28.824c11.34 3.2891 29.074 6.4453 33.434-8.9883 4.668-16.379-45.07-42.238-45.973-44.305l-20.652-100.2c10.957-0.75781 42.938-2.7852 54.059-3.5273l22.547 97.031s28.691 19.078 52.355 25.488c5.1133 1.3906 11.566 3.1211 17.953 3.7578 19.836 1.8242 30.516-12.457 14.508-26.797-12.312-11.004-40.262-20.594-48.758-23.734 0 0-8.0391-41.16-14.062-83.293 100.74-22.188 197.57-76.223 263.16-152.66 50.773-59.207 86.82-131.4 104.41-208.71 0.35938 1.7148 75.562-23.746 75.562-23.746l44.125-15.047-103.84-76.297c-0.67188-30.781-4.1172-66.457-19.824-100.49-17.641-38.113-48.516-67.738-87.059-83.426-76.188-31.055-165.48-1.2852-217.31 72.301-18.254 25.934-30.742 54.457-42.828 82.031-15.238 34.934-29.352 67.273-53.172 92.543-61.523 65.27-153.85 39.07-190.75 24.816-51.203-19.906-101.09-52.309-148.2-96.359l-50.762-48.012 2.5312 59.902c3.0234 71.352 14.676 136.84 35.039 200.17-45.301 4.2109-115.56 0.55078-132.17-0.97266l-47.844-2.8789 21.73 39.012c49.934 85.344 125.51 153.05 218.52 195.85 56.316 25.906 122.22 43.715 183.2 50.555 16.406 55.656 33.098 133.07 34.367 127.16zm-366.55-358.84c94.043 1.2109 149.48-12.961 149.99-13.117l4.3789-1.1406-11.113-25.645-5.0391-13.367c-15.336-44.762-25.176-91.223-30.875-141.14 40.789 32.293 82.836 57.648 125.23 74.113 95.855 37.234 186.96 23.449 243.68-36.758 29.594-31.414 46.117-69.191 62.051-105.72 11.785-27 22.754-52.199 38.305-74.258 32.746-46.477 94.656-81.562 159.25-55.211 27.047 11.004 48.828 31.883 61.211 58.824 13.535 29.137 15.707 64.246 17.676 95.219l0.61328 9.8633s36.648 28.176 45.805 35.207c-10.801 3.6133-54.898 18.324-54.898 18.324l-5.8672 14.891c-14.785 73.715-48.156 142.33-96.516 198.73-126.57 147.6-341.35 187.02-534.55 98.16-67.996-31.273-125.85-79-169.34-136.97z"/>
  <path d="m873.05 413.88c24.707 0 44.676-20.016 44.676-44.723 0-24.758-19.969-44.773-44.676-44.773-24.793 0-44.773 20.004-44.773 44.773-0.007813 24.695 19.984 44.723 44.773 44.723z"/>
 </g>
</svg>
